<svg xmlns="http://www.w3.org/2000/svg" width="37" height="38.12" viewBox="0 0 18.5 19.06"><path d="M1300.43 3279.68v7.37h-3.97v-6.88c0-1.73-.57-2.9-2.01-2.9a2.182 2.182 0 0 0-2.03 1.56 2.991 2.991 0 0 0-.13 1.04v7.18h-3.97s.05-11.65 0-12.85h3.97v1.82c-.01.01-.02.03-.03.04h.03v-.04a3.878 3.878 0 0 1 3.57-2.13c2.61 0 4.57 1.84 4.57 5.79Zm-16.26-11.68a2.22 2.22 0 0 0-.05 4.44h.03a2.22 2.22 0 1 0 .02-4.44Zm-2.01 19.05h3.97v-12.85h-3.97v12.85Z" transform="translate(-1281.94 -3268)" style="fill:#1c1c1c;fill-rule:evenodd"/></svg>