<svg xmlns="http://www.w3.org/2000/svg" width="128" height="128" viewBox="0 0 64 64"><path d="M951.548 1094.02a4.026 4.026 0 0 0-2.343-1.97l-22.139-7.01a.03.03 0 0 1-.026-.01l-.077-.24a4 4 0 0 0-5.02-2.6l-31.148 9.86a4 4 0 0 0-2.606 5.02l14.616 46.14a4.009 4.009 0 0 0 3.816 2.79 3.891 3.891 0 0 0 1.205-.19l12.174-3.85 12.173 3.85a3.9 3.9 0 0 0 1.206.19 4.007 4.007 0 0 0 3.815-2.79l2.367-7.47a.172.172 0 0 0 .009-.04 3.982 3.982 0 0 0 2.009-4.77l-.247-.78 10.478-33.08a3.972 3.972 0 0 0-.262-3.05Zm-16.895 48.38a1.339 1.339 0 0 1-1.675.87l-8.562-2.71 12.028-3.81Zm4.3-9.65a1.31 1.31 0 0 1-.781.65l-18.523 5.87-.086.03-12.539 3.97a1.338 1.338 0 0 1-1.674-.87l-14.616-46.13a1.337 1.337 0 0 1 .088-1.02 1.358 1.358 0 0 1 .781-.66l31.148-9.86a1.337 1.337 0 0 1 1.673.87l14.616 46.13a1.332 1.332 0 0 1-.09 1.02Zm-8.5-36.97 11 3.48-4.949 15.62Zm18.824.49-9.335 29.46-2.038-6.43 6.092-19.23a2.676 2.676 0 0 0-1.737-3.35l-12.518-3.96a1.234 1.234 0 0 0-.263-.06l-1.446-4.56 20.376 6.45a1.358 1.358 0 0 1 .781.66 1.337 1.337 0 0 1 .08 1.02Zm-34.083 8.74a5 5 0 0 0-2.607 1.97 4.922 4.922 0 0 0-6.469 6.08 4.605 4.605 0 0 0 2.656 2.88l5.519 2.25a2.666 2.666 0 0 0 1.04.2 2.925 2.925 0 0 0 .831-.12 2.79 2.79 0 0 0 1.486-1.14l3.213-5.02a4.617 4.617 0 0 0 .513-3.89 4.938 4.938 0 0 0-6.19-3.21Zm3.423 5.66-3.213 5.02a.051.051 0 0 1-.045.03.06.06 0 0 1-.058 0l-5.518-2.25a1.96 1.96 0 0 1-1.123-1.22 2.252 2.252 0 0 1 1.47-2.83 2.061 2.061 0 0 1 .689-.11 2.206 2.206 0 0 1 1.488.57 1.334 1.334 0 0 0 2.178-.69 2.255 2.255 0 0 1 4.349-.16 1.941 1.941 0 0 1-.225 1.64Zm3.684-18.92a2.661 2.661 0 0 0-3.348-1.74l-21.2 6.71a2.676 2.676 0 0 0-1.737 3.35l9.881 31.19a2.676 2.676 0 0 0 2.544 1.86 2.5 2.5 0 0 0 .8-.13l21.2-6.71a2.663 2.663 0 0 0 1.737-3.35Zm-13.858 38.7-9.881-31.19 11.425-3.61 9.772-3.1 9.88 31.19Z" transform="translate(-888 -1082)" style="fill:#3172b9;fill-rule:evenodd"/></svg>